<?xml version="1.0" standalone="no"?>
<!DOCTYPE svg PUBLIC "-//W3C//DTD SVG 20010904//EN"
 "http://www.w3.org/TR/2001/REC-SVG-20010904/DTD/svg10.dtd">
<svg version="1.0" xmlns="http://www.w3.org/2000/svg"
 width="184.000000pt" height="184.000000pt" viewBox="0 0 184.000000 184.000000"
 preserveAspectRatio="xMidYMid meet">
<metadata>
Created by potrace 1.11, written by Peter Selinger 2001-2013
</metadata>
<g transform="translate(0.000000,184.000000) scale(0.100000,-0.100000)"
fill="#000000" stroke="none">
<path d="M1160 1685 l0 -115 160 0 160 0 0 115 0 115 -160 0 -160 0 0 -115z"/>
<path d="M483 1475 c-179 -39 -293 -156 -293 -301 0 -80 22 -140 68 -187 52
-55 118 -85 246 -114 142 -32 174 -45 182 -77 17 -70 -33 -101 -161 -100 -101
1 -188 28 -269 84 -74 50 -76 48 -76 -95 l0 -124 80 -26 c116 -36 210 -48 325
-42 251 14 406 139 405 326 -2 156 -89 237 -308 286 -142 31 -180 47 -188 79
-14 59 28 94 125 103 72 7 166 -17 247 -62 34 -19 67 -35 73 -35 7 0 11 40 11
119 l0 119 -48 16 c-137 46 -297 57 -419 31z"/>
<path d="M1010 1340 l0 -100 85 0 86 0 -3 -387 c-3 -353 -5 -391 -21 -421 -21
-38 -68 -62 -122 -62 l-36 0 3 -107 3 -108 94 -3 c110 -3 176 13 247 60 62 42
108 118 123 202 7 39 11 240 11 544 l0 482 -235 0 -235 0 0 -100z"/>
</g>
</svg>
